# MagicaVoxel @ Ephtracy

# group
o 

# material
mtllib player3.mtl
usemtl palette

# normals
vn -1 0 0
vn 1 0 0
vn 0 0 1
vn 0 0 -1
vn 0 -1 0
vn 0 1 0

# texcoords
vt 0.0214844 0.5
vt 0.0332031 0.5
vt 0.447266 0.5
vt 0.841797 0.5
vt 0.958984 0.5

# verts
v -0.8 1.1 0
v -0.8 1.1 -0.2
v -0.8 2 0
v -0.8 2 -0.2
v -0.6 0 0.2
v -0.6 0 -0.3
v -0.6 0.2 0.2
v -0.6 0.2 0.1
v -0.6 0.2 -0.3
v -0.6 0.6 0.1
v -0.6 0.6 -0.3
v -0.6 1.1 0.1
v -0.6 1.1 0
v -0.6 1.1 -0.2
v -0.6 1.1 -0.3
v -0.6 2 0.1
v -0.6 2 0
v -0.6 2 -0.2
v -0.6 2 -0.3
v -0.4 2.2 0.1
v -0.4 2.2 -0.3
v -0.4 2.6 0.1
v -0.4 2.6 -0.3
v -0.4 2.9 0.1
v -0.4 2.9 -0.3
v -0.3 2 0.1
v -0.3 2 -0.3
v -0.3 2.2 0.1
v -0.3 2.2 -0.3
v 0.2 0 0.2
v 0.2 0 -0.3
v 0.2 0.2 0.2
v 0.2 0.2 0.1
v 0.2 0.2 -0.3
v 0.2 0.6 0.1
v 0.2 0.6 -0.3
v 0.2 0.7 0.1
v 0.2 0.7 -0.3
v -0.2 0 0.2
v -0.2 0 -0.3
v -0.2 0.2 0.2
v -0.2 0.2 0.1
v -0.2 0.2 -0.3
v -0.2 0.6 0.1
v -0.2 0.6 -0.3
v -0.2 0.7 0.1
v -0.2 0.7 -0.3
v 0.3 2 0.1
v 0.3 2 -0.3
v 0.3 2.2 0.1
v 0.3 2.2 -0.3
v 0.4 2.2 0.1
v 0.4 2.2 -0.3
v 0.4 2.6 0.1
v 0.4 2.6 -0.3
v 0.4 2.9 0.1
v 0.4 2.9 -0.3
v 0.6 0 0.2
v 0.6 0 -0.3
v 0.6 0.2 0.2
v 0.6 0.2 0.1
v 0.6 0.2 -0.3
v 0.6 0.6 0.1
v 0.6 0.6 -0.3
v 0.6 1.1 0.1
v 0.6 1.1 0
v 0.6 1.1 -0.2
v 0.6 1.1 -0.3
v 0.6 2 0.1
v 0.6 2 0
v 0.6 2 -0.2
v 0.6 2 -0.3
v 0.8 1.1 0
v 0.8 1.1 -0.2
v 0.8 2 0
v 0.8 2 -0.2
v -0.6 0 0.2
v -0.6 0.2 0.2
v -0.2 0 0.2
v -0.2 0.2 0.2
v 0.2 0 0.2
v 0.2 0.2 0.2
v 0.6 0 0.2
v 0.6 0.2 0.2
v -0.6 0.2 0.1
v -0.6 0.6 0.1
v -0.6 1.1 0.1
v -0.6 2 0.1
v -0.5 1.1 0.1
v -0.5 2 0.1
v -0.4 2.2 0.1
v -0.4 2.6 0.1
v -0.4 2.9 0.1
v -0.3 1.1 0.1
v -0.3 2 0.1
v -0.3 2.2 0.1
v -0.2 0.2 0.1
v -0.2 0.6 0.1
v -0.2 0.7 0.1
v -0.1 1.1 0.1
v -0.1 2 0.1
v 0.1 1.1 0.1
v 0.1 2 0.1
v 0.2 0.2 0.1
v 0.2 0.6 0.1
v 0.2 0.7 0.1
v 0.3 1.1 0.1
v 0.3 2 0.1
v 0.3 2.2 0.1
v 0.4 2.2 0.1
v 0.4 2.6 0.1
v 0.4 2.9 0.1
v 0.5 1.1 0.1
v 0.5 2 0.1
v 0.6 0.2 0.1
v 0.6 0.6 0.1
v 0.6 1.1 0.1
v 0.6 2 0.1
v -0.8 1.1 0
v -0.8 2 0
v -0.6 1.1 0
v -0.6 2 0
v 0.6 1.1 0
v 0.6 2 0
v 0.8 1.1 0
v 0.8 2 0
v -0.8 1.1 -0.2
v -0.8 2 -0.2
v -0.6 1.1 -0.2
v -0.6 2 -0.2
v 0.6 1.1 -0.2
v 0.6 2 -0.2
v 0.8 1.1 -0.2
v 0.8 2 -0.2
v -0.6 0 -0.3
v -0.6 0.2 -0.3
v -0.6 0.6 -0.3
v -0.6 1.1 -0.3
v -0.6 2 -0.3
v -0.5 1.1 -0.3
v -0.5 2 -0.3
v -0.4 2.2 -0.3
v -0.4 2.6 -0.3
v -0.4 2.9 -0.3
v -0.3 1.1 -0.3
v -0.3 2 -0.3
v -0.3 2.2 -0.3
v -0.2 0 -0.3
v -0.2 0.2 -0.3
v -0.2 0.6 -0.3
v -0.2 0.7 -0.3
v -0.1 1.1 -0.3
v -0.1 2 -0.3
v 0.1 1.1 -0.3
v 0.1 2 -0.3
v 0.2 0 -0.3
v 0.2 0.2 -0.3
v 0.2 0.6 -0.3
v 0.2 0.7 -0.3
v 0.3 1.1 -0.3
v 0.3 2 -0.3
v 0.3 2.2 -0.3
v 0.4 2.2 -0.3
v 0.4 2.6 -0.3
v 0.4 2.9 -0.3
v 0.5 1.1 -0.3
v 0.5 2 -0.3
v 0.6 0 -0.3
v 0.6 0.2 -0.3
v 0.6 0.6 -0.3
v 0.6 1.1 -0.3
v 0.6 2 -0.3
v -0.6 0 0.2
v -0.2 0 0.2
v 0.2 0 0.2
v 0.6 0 0.2
v -0.6 0 -0.3
v -0.2 0 -0.3
v 0.2 0 -0.3
v 0.6 0 -0.3
v -0.2 0.7 0.1
v 0.2 0.7 0.1
v -0.2 0.7 -0.3
v 0.2 0.7 -0.3
v -0.8 1.1 0
v -0.6 1.1 0
v 0.6 1.1 0
v 0.8 1.1 0
v -0.8 1.1 -0.2
v -0.6 1.1 -0.2
v 0.6 1.1 -0.2
v 0.8 1.1 -0.2
v -0.4 2.2 0.1
v -0.3 2.2 0.1
v 0.3 2.2 0.1
v 0.4 2.2 0.1
v -0.4 2.2 -0.3
v -0.3 2.2 -0.3
v 0.3 2.2 -0.3
v 0.4 2.2 -0.3
v -0.6 0.2 0.2
v -0.2 0.2 0.2
v 0.2 0.2 0.2
v 0.6 0.2 0.2
v -0.6 0.2 0.1
v -0.2 0.2 0.1
v 0.2 0.2 0.1
v 0.6 0.2 0.1
v -0.6 2 0.1
v -0.5 2 0.1
v -0.3 2 0.1
v 0.3 2 0.1
v 0.5 2 0.1
v 0.6 2 0.1
v -0.8 2 0
v -0.6 2 0
v 0.6 2 0
v 0.8 2 0
v -0.8 2 -0.2
v -0.6 2 -0.2
v 0.6 2 -0.2
v 0.8 2 -0.2
v -0.6 2 -0.3
v -0.5 2 -0.3
v -0.3 2 -0.3
v 0.3 2 -0.3
v 0.5 2 -0.3
v 0.6 2 -0.3
v -0.4 2.9 0.1
v 0.4 2.9 0.1
v -0.4 2.9 -0.3
v 0.4 2.9 -0.3

# faces
f 3/2/1 2/2/1 1/2/1
f 4/2/1 2/2/1 3/2/1
f 7/4/1 6/4/1 5/4/1
f 8/4/1 6/4/1 7/4/1
f 9/4/1 6/4/1 8/4/1
f 10/2/1 9/2/1 8/2/1
f 11/2/1 9/2/1 10/2/1
f 12/5/1 11/5/1 10/5/1
f 13/5/1 11/5/1 12/5/1
f 14/5/1 11/5/1 13/5/1
f 15/5/1 11/5/1 14/5/1
f 16/3/1 13/3/1 12/3/1
f 17/3/1 13/3/1 16/3/1
f 18/3/1 15/3/1 14/3/1
f 19/3/1 15/3/1 18/3/1
f 22/2/1 21/2/1 20/2/1
f 23/2/1 21/2/1 22/2/1
f 24/1/1 23/1/1 22/1/1
f 25/1/1 23/1/1 24/1/1
f 28/2/1 27/2/1 26/2/1
f 29/2/1 27/2/1 28/2/1
f 32/4/1 31/4/1 30/4/1
f 33/4/1 31/4/1 32/4/1
f 34/4/1 31/4/1 33/4/1
f 35/2/1 34/2/1 33/2/1
f 36/2/1 34/2/1 35/2/1
f 37/5/1 36/5/1 35/5/1
f 38/5/1 36/5/1 37/5/1
f 39/4/2 40/4/2 41/4/2
f 41/4/2 40/4/2 42/4/2
f 42/4/2 40/4/2 43/4/2
f 42/2/2 43/2/2 44/2/2
f 44/2/2 43/2/2 45/2/2
f 44/5/2 45/5/2 46/5/2
f 46/5/2 45/5/2 47/5/2
f 48/2/2 49/2/2 50/2/2
f 50/2/2 49/2/2 51/2/2
f 52/2/2 53/2/2 54/2/2
f 54/2/2 53/2/2 55/2/2
f 54/1/2 55/1/2 56/1/2
f 56/1/2 55/1/2 57/1/2
f 58/4/2 59/4/2 60/4/2
f 60/4/2 59/4/2 61/4/2
f 61/4/2 59/4/2 62/4/2
f 61/2/2 62/2/2 63/2/2
f 63/2/2 62/2/2 64/2/2
f 63/5/2 64/5/2 65/5/2
f 65/5/2 64/5/2 66/5/2
f 66/5/2 64/5/2 67/5/2
f 67/5/2 64/5/2 68/5/2
f 65/3/2 66/3/2 69/3/2
f 69/3/2 66/3/2 70/3/2
f 67/3/2 68/3/2 71/3/2
f 71/3/2 68/3/2 72/3/2
f 73/2/2 74/2/2 75/2/2
f 75/2/2 74/2/2 76/2/2
f 79/4/3 78/4/3 77/4/3
f 80/4/3 78/4/3 79/4/3
f 83/4/3 82/4/3 81/4/3
f 84/4/3 82/4/3 83/4/3
f 89/5/3 87/5/3 86/5/3
f 89/3/3 88/3/3 87/3/3
f 90/3/3 88/3/3 89/3/3
f 94/5/3 89/5/3 86/5/3
f 94/5/3 90/5/3 89/5/3
f 95/5/3 90/5/3 94/5/3
f 96/2/3 92/2/3 91/2/3
f 97/2/3 86/2/3 85/2/3
f 98/5/3 94/5/3 86/5/3
f 98/2/3 86/2/3 97/2/3
f 99/5/3 94/5/3 98/5/3
f 100/3/3 95/3/3 94/3/3
f 100/5/3 94/5/3 99/5/3
f 101/2/3 96/2/3 95/2/3
f 101/3/3 95/3/3 100/3/3
f 102/5/3 100/5/3 99/5/3
f 102/5/3 101/5/3 100/5/3
f 103/2/3 96/2/3 101/2/3
f 103/5/3 101/5/3 102/5/3
f 106/5/3 102/5/3 99/5/3
f 107/3/3 103/3/3 102/3/3
f 107/5/3 106/5/3 105/5/3
f 107/5/3 102/5/3 106/5/3
f 108/2/3 96/2/3 103/2/3
f 108/3/3 103/3/3 107/3/3
f 109/2/3 92/2/3 96/2/3
f 109/2/3 96/2/3 108/2/3
f 110/2/3 92/2/3 109/2/3
f 111/1/3 93/1/3 92/1/3
f 111/2/3 92/2/3 110/2/3
f 112/1/3 93/1/3 111/1/3
f 113/5/3 108/5/3 107/5/3
f 113/5/3 107/5/3 105/5/3
f 114/5/3 108/5/3 113/5/3
f 115/2/3 105/2/3 104/2/3
f 116/5/3 113/5/3 105/5/3
f 116/2/3 105/2/3 115/2/3
f 117/3/3 114/3/3 113/3/3
f 117/5/3 113/5/3 116/5/3
f 118/3/3 114/3/3 117/3/3
f 121/2/3 120/2/3 119/2/3
f 122/2/3 120/2/3 121/2/3
f 125/2/3 124/2/3 123/2/3
f 126/2/3 124/2/3 125/2/3
f 127/2/4 128/2/4 129/2/4
f 129/2/4 128/2/4 130/2/4
f 131/2/4 132/2/4 133/2/4
f 133/2/4 132/2/4 134/2/4
f 137/5/4 138/5/4 140/5/4
f 138/3/4 139/3/4 140/3/4
f 140/3/4 139/3/4 141/3/4
f 137/5/4 140/5/4 145/5/4
f 140/5/4 141/5/4 145/5/4
f 145/5/4 141/5/4 146/5/4
f 142/2/4 143/2/4 147/2/4
f 135/4/4 136/4/4 148/4/4
f 136/2/4 137/2/4 149/2/4
f 148/4/4 136/4/4 149/4/4
f 137/5/4 145/5/4 150/5/4
f 149/2/4 137/2/4 150/2/4
f 150/5/4 145/5/4 151/5/4
f 145/3/4 146/3/4 152/3/4
f 151/5/4 145/5/4 152/5/4
f 146/2/4 147/2/4 153/2/4
f 152/3/4 146/3/4 153/3/4
f 151/5/4 152/5/4 154/5/4
f 152/5/4 153/5/4 154/5/4
f 153/2/4 147/2/4 155/2/4
f 154/5/4 153/5/4 155/5/4
f 151/5/4 154/5/4 159/5/4
f 154/3/4 155/3/4 160/3/4
f 158/5/4 159/5/4 160/5/4
f 159/5/4 154/5/4 160/5/4
f 155/2/4 147/2/4 161/2/4
f 160/3/4 155/3/4 161/3/4
f 147/2/4 143/2/4 162/2/4
f 161/2/4 147/2/4 162/2/4
f 162/2/4 143/2/4 163/2/4
f 143/1/4 144/1/4 164/1/4
f 163/2/4 143/2/4 164/2/4
f 164/1/4 144/1/4 165/1/4
f 160/5/4 161/5/4 166/5/4
f 158/5/4 160/5/4 166/5/4
f 166/5/4 161/5/4 167/5/4
f 156/4/4 157/4/4 168/4/4
f 157/2/4 158/2/4 169/2/4
f 168/4/4 157/4/4 169/4/4
f 158/5/4 166/5/4 170/5/4
f 169/2/4 158/2/4 170/2/4
f 166/3/4 167/3/4 171/3/4
f 170/5/4 166/5/4 171/5/4
f 171/3/4 167/3/4 172/3/4
f 177/4/5 174/4/5 173/4/5
f 178/4/5 174/4/5 177/4/5
f 179/4/5 176/4/5 175/4/5
f 180/4/5 176/4/5 179/4/5
f 183/5/5 182/5/5 181/5/5
f 184/5/5 182/5/5 183/5/5
f 189/2/5 186/2/5 185/2/5
f 190/2/5 186/2/5 189/2/5
f 191/2/5 188/2/5 187/2/5
f 192/2/5 188/2/5 191/2/5
f 197/2/5 194/2/5 193/2/5
f 198/2/5 194/2/5 197/2/5
f 199/2/5 196/2/5 195/2/5
f 200/2/5 196/2/5 199/2/5
f 201/4/6 202/4/6 205/4/6
f 205/4/6 202/4/6 206/4/6
f 203/4/6 204/4/6 207/4/6
f 207/4/6 204/4/6 208/4/6
f 209/3/6 210/3/6 216/3/6
f 213/3/6 214/3/6 217/3/6
f 215/2/6 216/2/6 219/2/6
f 216/3/6 210/3/6 220/3/6
f 219/2/6 216/2/6 220/2/6
f 217/2/6 218/2/6 221/2/6
f 213/3/6 217/3/6 221/3/6
f 221/2/6 218/2/6 222/2/6
f 220/3/6 210/3/6 223/3/6
f 210/5/6 211/5/6 224/5/6
f 223/3/6 210/3/6 224/3/6
f 224/5/6 211/5/6 225/5/6
f 212/5/6 213/5/6 226/5/6
f 213/3/6 221/3/6 227/3/6
f 226/5/6 213/5/6 227/5/6
f 227/3/6 221/3/6 228/3/6
f 229/1/6 230/1/6 231/1/6
f 231/1/6 230/1/6 232/1/6
