# MagicaVoxel @ Ephtracy

# group
o 

# material
mtllib player2.mtl
usemtl palette

# normals
vn -1 0 0
vn 1 0 0
vn 0 0 1
vn 0 0 -1
vn 0 -1 0
vn 0 1 0

# texcoords
vt 0.0175781 0.5
vt 0.0332031 0.5
vt 0.994141 0.5

# verts
v -0.8 1.1 0
v -0.8 1.1 -0.2
v -0.8 2 0
v -0.8 2 -0.2
v -0.6 0 0.2
v -0.6 0 -0.3
v -0.6 0.2 0.2
v -0.6 0.2 0.1
v -0.6 0.2 -0.3
v -0.6 0.6 0.1
v -0.6 0.6 -0.3
v -0.6 1.1 0.1
v -0.6 1.1 0
v -0.6 1.1 -0.2
v -0.6 1.1 -0.3
v -0.6 2 0.1
v -0.6 2 0
v -0.6 2 -0.2
v -0.6 2 -0.3
v -0.4 2.2 0.1
v -0.4 2.2 -0.3
v -0.4 2.6 0.1
v -0.4 2.6 -0.3
v -0.4 2.9 0.1
v -0.4 2.9 -0.3
v -0.3 2 0.1
v -0.3 2 -0.3
v -0.3 2.2 0.1
v -0.3 2.2 -0.3
v 0.2 0 0.2
v 0.2 0 -0.3
v 0.2 0.2 0.2
v 0.2 0.2 0.1
v 0.2 0.2 -0.3
v 0.2 0.6 0.1
v 0.2 0.6 -0.3
v 0.2 0.7 0.1
v 0.2 0.7 -0.3
v -0.2 0 0.2
v -0.2 0 -0.3
v -0.2 0.2 0.2
v -0.2 0.2 0.1
v -0.2 0.2 -0.3
v -0.2 0.6 0.1
v -0.2 0.6 -0.3
v -0.2 0.7 0.1
v -0.2 0.7 -0.3
v 0.3 2 0.1
v 0.3 2 -0.3
v 0.3 2.2 0.1
v 0.3 2.2 -0.3
v 0.4 2.2 0.1
v 0.4 2.2 -0.3
v 0.4 2.6 0.1
v 0.4 2.6 -0.3
v 0.4 2.9 0.1
v 0.4 2.9 -0.3
v 0.6 0 0.2
v 0.6 0 -0.3
v 0.6 0.2 0.2
v 0.6 0.2 0.1
v 0.6 0.2 -0.3
v 0.6 0.6 0.1
v 0.6 0.6 -0.3
v 0.6 1.1 0.1
v 0.6 1.1 0
v 0.6 1.1 -0.2
v 0.6 1.1 -0.3
v 0.6 2 0.1
v 0.6 2 0
v 0.6 2 -0.2
v 0.6 2 -0.3
v 0.8 1.1 0
v 0.8 1.1 -0.2
v 0.8 2 0
v 0.8 2 -0.2
v -0.6 0 0.2
v -0.6 0.2 0.2
v -0.2 0 0.2
v -0.2 0.2 0.2
v 0.2 0 0.2
v 0.2 0.2 0.2
v 0.6 0 0.2
v 0.6 0.2 0.2
v -0.6 0.2 0.1
v -0.6 0.6 0.1
v -0.6 1.1 0.1
v -0.6 2 0.1
v -0.5 1.1 0.1
v -0.5 2 0.1
v -0.4 2.2 0.1
v -0.4 2.6 0.1
v -0.4 2.9 0.1
v -0.3 1.1 0.1
v -0.3 2 0.1
v -0.3 2.2 0.1
v -0.2 0.2 0.1
v -0.2 0.6 0.1
v -0.2 0.7 0.1
v -0.1 1.1 0.1
v -0.1 2 0.1
v 0.1 1.1 0.1
v 0.1 2 0.1
v 0.2 0.2 0.1
v 0.2 0.6 0.1
v 0.2 0.7 0.1
v 0.3 1.1 0.1
v 0.3 2 0.1
v 0.3 2.2 0.1
v 0.4 2.2 0.1
v 0.4 2.6 0.1
v 0.4 2.9 0.1
v 0.5 1.1 0.1
v 0.5 2 0.1
v 0.6 0.2 0.1
v 0.6 0.6 0.1
v 0.6 1.1 0.1
v 0.6 2 0.1
v -0.8 1.1 0
v -0.8 2 0
v -0.6 1.1 0
v -0.6 2 0
v 0.6 1.1 0
v 0.6 2 0
v 0.8 1.1 0
v 0.8 2 0
v -0.8 1.1 -0.2
v -0.8 2 -0.2
v -0.6 1.1 -0.2
v -0.6 2 -0.2
v 0.6 1.1 -0.2
v 0.6 2 -0.2
v 0.8 1.1 -0.2
v 0.8 2 -0.2
v -0.6 0 -0.3
v -0.6 0.2 -0.3
v -0.6 0.6 -0.3
v -0.6 1.1 -0.3
v -0.6 2 -0.3
v -0.5 1.1 -0.3
v -0.5 2 -0.3
v -0.4 2.2 -0.3
v -0.4 2.6 -0.3
v -0.4 2.9 -0.3
v -0.3 1.1 -0.3
v -0.3 2 -0.3
v -0.3 2.2 -0.3
v -0.2 0 -0.3
v -0.2 0.2 -0.3
v -0.2 0.6 -0.3
v -0.2 0.7 -0.3
v -0.1 1.1 -0.3
v -0.1 2 -0.3
v 0.1 1.1 -0.3
v 0.1 2 -0.3
v 0.2 0 -0.3
v 0.2 0.2 -0.3
v 0.2 0.6 -0.3
v 0.2 0.7 -0.3
v 0.3 1.1 -0.3
v 0.3 2 -0.3
v 0.3 2.2 -0.3
v 0.4 2.2 -0.3
v 0.4 2.6 -0.3
v 0.4 2.9 -0.3
v 0.5 1.1 -0.3
v 0.5 2 -0.3
v 0.6 0 -0.3
v 0.6 0.2 -0.3
v 0.6 0.6 -0.3
v 0.6 1.1 -0.3
v 0.6 2 -0.3
v -0.6 0 0.2
v -0.2 0 0.2
v 0.2 0 0.2
v 0.6 0 0.2
v -0.6 0 -0.3
v -0.2 0 -0.3
v 0.2 0 -0.3
v 0.6 0 -0.3
v -0.2 0.7 0.1
v 0.2 0.7 0.1
v -0.2 0.7 -0.3
v 0.2 0.7 -0.3
v -0.8 1.1 0
v -0.6 1.1 0
v 0.6 1.1 0
v 0.8 1.1 0
v -0.8 1.1 -0.2
v -0.6 1.1 -0.2
v 0.6 1.1 -0.2
v 0.8 1.1 -0.2
v -0.4 2.2 0.1
v -0.3 2.2 0.1
v 0.3 2.2 0.1
v 0.4 2.2 0.1
v -0.4 2.2 -0.3
v -0.3 2.2 -0.3
v 0.3 2.2 -0.3
v 0.4 2.2 -0.3
v -0.6 0.2 0.2
v -0.2 0.2 0.2
v 0.2 0.2 0.2
v 0.6 0.2 0.2
v -0.6 0.2 0.1
v -0.2 0.2 0.1
v 0.2 0.2 0.1
v 0.6 0.2 0.1
v -0.6 2 0.1
v -0.5 2 0.1
v -0.3 2 0.1
v 0.3 2 0.1
v 0.5 2 0.1
v 0.6 2 0.1
v -0.8 2 0
v -0.6 2 0
v 0.6 2 0
v 0.8 2 0
v -0.8 2 -0.2
v -0.6 2 -0.2
v 0.6 2 -0.2
v 0.8 2 -0.2
v -0.6 2 -0.3
v -0.5 2 -0.3
v -0.3 2 -0.3
v 0.3 2 -0.3
v 0.5 2 -0.3
v 0.6 2 -0.3
v -0.4 2.9 0.1
v 0.4 2.9 0.1
v -0.4 2.9 -0.3
v 0.4 2.9 -0.3

# faces
f 3/2/1 2/2/1 1/2/1
f 4/2/1 2/2/1 3/2/1
f 7/3/1 6/3/1 5/3/1
f 8/3/1 6/3/1 7/3/1
f 9/3/1 6/3/1 8/3/1
f 10/2/1 9/2/1 8/2/1
f 11/2/1 9/2/1 10/2/1
f 12/3/1 11/3/1 10/3/1
f 13/3/1 11/3/1 12/3/1
f 14/3/1 11/3/1 13/3/1
f 15/3/1 11/3/1 14/3/1
f 16/1/1 13/1/1 12/1/1
f 17/1/1 13/1/1 16/1/1
f 18/1/1 15/1/1 14/1/1
f 19/1/1 15/1/1 18/1/1
f 22/2/1 21/2/1 20/2/1
f 23/2/1 21/2/1 22/2/1
f 24/3/1 23/3/1 22/3/1
f 25/3/1 23/3/1 24/3/1
f 28/2/1 27/2/1 26/2/1
f 29/2/1 27/2/1 28/2/1
f 32/3/1 31/3/1 30/3/1
f 33/3/1 31/3/1 32/3/1
f 34/3/1 31/3/1 33/3/1
f 35/2/1 34/2/1 33/2/1
f 36/2/1 34/2/1 35/2/1
f 37/3/1 36/3/1 35/3/1
f 38/3/1 36/3/1 37/3/1
f 39/3/2 40/3/2 41/3/2
f 41/3/2 40/3/2 42/3/2
f 42/3/2 40/3/2 43/3/2
f 42/2/2 43/2/2 44/2/2
f 44/2/2 43/2/2 45/2/2
f 44/3/2 45/3/2 46/3/2
f 46/3/2 45/3/2 47/3/2
f 48/2/2 49/2/2 50/2/2
f 50/2/2 49/2/2 51/2/2
f 52/2/2 53/2/2 54/2/2
f 54/2/2 53/2/2 55/2/2
f 54/3/2 55/3/2 56/3/2
f 56/3/2 55/3/2 57/3/2
f 58/3/2 59/3/2 60/3/2
f 60/3/2 59/3/2 61/3/2
f 61/3/2 59/3/2 62/3/2
f 61/2/2 62/2/2 63/2/2
f 63/2/2 62/2/2 64/2/2
f 63/3/2 64/3/2 65/3/2
f 65/3/2 64/3/2 66/3/2
f 66/3/2 64/3/2 67/3/2
f 67/3/2 64/3/2 68/3/2
f 65/1/2 66/1/2 69/1/2
f 69/1/2 66/1/2 70/1/2
f 67/1/2 68/1/2 71/1/2
f 71/1/2 68/1/2 72/1/2
f 73/2/2 74/2/2 75/2/2
f 75/2/2 74/2/2 76/2/2
f 79/3/3 78/3/3 77/3/3
f 80/3/3 78/3/3 79/3/3
f 83/3/3 82/3/3 81/3/3
f 84/3/3 82/3/3 83/3/3
f 89/3/3 87/3/3 86/3/3
f 89/1/3 88/1/3 87/1/3
f 90/1/3 88/1/3 89/1/3
f 94/3/3 89/3/3 86/3/3
f 94/3/3 90/3/3 89/3/3
f 95/3/3 90/3/3 94/3/3
f 96/2/3 92/2/3 91/2/3
f 97/2/3 86/2/3 85/2/3
f 98/3/3 94/3/3 86/3/3
f 98/2/3 86/2/3 97/2/3
f 99/3/3 94/3/3 98/3/3
f 100/1/3 95/1/3 94/1/3
f 100/3/3 94/3/3 99/3/3
f 101/2/3 96/2/3 95/2/3
f 101/1/3 95/1/3 100/1/3
f 102/3/3 100/3/3 99/3/3
f 102/3/3 101/3/3 100/3/3
f 103/2/3 96/2/3 101/2/3
f 103/3/3 101/3/3 102/3/3
f 106/3/3 102/3/3 99/3/3
f 107/1/3 103/1/3 102/1/3
f 107/3/3 106/3/3 105/3/3
f 107/3/3 102/3/3 106/3/3
f 108/2/3 96/2/3 103/2/3
f 108/1/3 103/1/3 107/1/3
f 109/2/3 92/2/3 96/2/3
f 109/2/3 96/2/3 108/2/3
f 110/2/3 92/2/3 109/2/3
f 111/3/3 93/3/3 92/3/3
f 111/2/3 92/2/3 110/2/3
f 112/3/3 93/3/3 111/3/3
f 113/3/3 108/3/3 107/3/3
f 113/3/3 107/3/3 105/3/3
f 114/3/3 108/3/3 113/3/3
f 115/2/3 105/2/3 104/2/3
f 116/3/3 113/3/3 105/3/3
f 116/2/3 105/2/3 115/2/3
f 117/1/3 114/1/3 113/1/3
f 117/3/3 113/3/3 116/3/3
f 118/1/3 114/1/3 117/1/3
f 121/2/3 120/2/3 119/2/3
f 122/2/3 120/2/3 121/2/3
f 125/2/3 124/2/3 123/2/3
f 126/2/3 124/2/3 125/2/3
f 127/2/4 128/2/4 129/2/4
f 129/2/4 128/2/4 130/2/4
f 131/2/4 132/2/4 133/2/4
f 133/2/4 132/2/4 134/2/4
f 137/3/4 138/3/4 140/3/4
f 138/1/4 139/1/4 140/1/4
f 140/1/4 139/1/4 141/1/4
f 137/3/4 140/3/4 145/3/4
f 140/3/4 141/3/4 145/3/4
f 145/3/4 141/3/4 146/3/4
f 142/2/4 143/2/4 147/2/4
f 135/3/4 136/3/4 148/3/4
f 136/2/4 137/2/4 149/2/4
f 148/3/4 136/3/4 149/3/4
f 137/3/4 145/3/4 150/3/4
f 149/2/4 137/2/4 150/2/4
f 150/3/4 145/3/4 151/3/4
f 145/1/4 146/1/4 152/1/4
f 151/3/4 145/3/4 152/3/4
f 146/2/4 147/2/4 153/2/4
f 152/1/4 146/1/4 153/1/4
f 151/3/4 152/3/4 154/3/4
f 152/3/4 153/3/4 154/3/4
f 153/2/4 147/2/4 155/2/4
f 154/3/4 153/3/4 155/3/4
f 151/3/4 154/3/4 159/3/4
f 154/1/4 155/1/4 160/1/4
f 158/3/4 159/3/4 160/3/4
f 159/3/4 154/3/4 160/3/4
f 155/2/4 147/2/4 161/2/4
f 160/1/4 155/1/4 161/1/4
f 147/2/4 143/2/4 162/2/4
f 161/2/4 147/2/4 162/2/4
f 162/2/4 143/2/4 163/2/4
f 143/3/4 144/3/4 164/3/4
f 163/2/4 143/2/4 164/2/4
f 164/3/4 144/3/4 165/3/4
f 160/3/4 161/3/4 166/3/4
f 158/3/4 160/3/4 166/3/4
f 166/3/4 161/3/4 167/3/4
f 156/3/4 157/3/4 168/3/4
f 157/2/4 158/2/4 169/2/4
f 168/3/4 157/3/4 169/3/4
f 158/3/4 166/3/4 170/3/4
f 169/2/4 158/2/4 170/2/4
f 166/1/4 167/1/4 171/1/4
f 170/3/4 166/3/4 171/3/4
f 171/1/4 167/1/4 172/1/4
f 177/3/5 174/3/5 173/3/5
f 178/3/5 174/3/5 177/3/5
f 179/3/5 176/3/5 175/3/5
f 180/3/5 176/3/5 179/3/5
f 183/3/5 182/3/5 181/3/5
f 184/3/5 182/3/5 183/3/5
f 189/2/5 186/2/5 185/2/5
f 190/2/5 186/2/5 189/2/5
f 191/2/5 188/2/5 187/2/5
f 192/2/5 188/2/5 191/2/5
f 197/2/5 194/2/5 193/2/5
f 198/2/5 194/2/5 197/2/5
f 199/2/5 196/2/5 195/2/5
f 200/2/5 196/2/5 199/2/5
f 201/3/6 202/3/6 205/3/6
f 205/3/6 202/3/6 206/3/6
f 203/3/6 204/3/6 207/3/6
f 207/3/6 204/3/6 208/3/6
f 209/1/6 210/1/6 216/1/6
f 213/1/6 214/1/6 217/1/6
f 215/2/6 216/2/6 219/2/6
f 216/1/6 210/1/6 220/1/6
f 219/2/6 216/2/6 220/2/6
f 217/2/6 218/2/6 221/2/6
f 213/1/6 217/1/6 221/1/6
f 221/2/6 218/2/6 222/2/6
f 220/1/6 210/1/6 223/1/6
f 210/3/6 211/3/6 224/3/6
f 223/1/6 210/1/6 224/1/6
f 224/3/6 211/3/6 225/3/6
f 212/3/6 213/3/6 226/3/6
f 213/1/6 221/1/6 227/1/6
f 226/3/6 213/3/6 227/3/6
f 227/1/6 221/1/6 228/1/6
f 229/3/6 230/3/6 231/3/6
f 231/3/6 230/3/6 232/3/6
